# xmcd
#
# Track frame offsets:
#	150
#	13780
#	29385
#	43414
#	61497
#	78165
#	92825
#	108320
#	123820
#	140665
#	161400
#	179774
#	196871
#	214405
#	233304
#	249825
#	265184
#	281955
#	294136
#	310367
#
# Disc length: 4388 seconds
#
# Revision: 1
# Processed by: cddbd v1.5.1PL0 Copyright (c) Steve Scherf et al.
# Submitted via: audiograbber 1.83.01
#
DISCID=1d112214
DTITLE=Earl Thomas Conley - Perpetual Emotion
DYEAR=2005
DGENRE=Country
TTITLE0=I Ain't Crazy
TTITLE1=It Should've Been Over By Now
TTITLE2=The Closer You Are
TTITLE3=Scared Money Never Wins
TTITLE4=You Don't Have To Live With It
TTITLE5=Holding Her And Loving You
TTITLE6=Don't Make It Easy For Me
TTITLE7=Your Love's On The Line
TTITLE8=Once In A Blue Mountain
TTITLE9=I Can't Win For Losing You
TTITLE10=What She Is
TTITLE11=Love Out Loud
TTITLE12=What I'd Say
TTITLE13=You Must Not Be Drinking Enough
TTITLE14=Carol
TTITLE15=No Chance, No Dance
TTITLE16=I Love The Way He Left You
TTITLE17=Finally Friday
TTITLE18=We Believe In Happy Endings
TTITLE19=Too Far From The Heart Of It All
EXTD=
EXTT0=
EXTT1=
EXTT2=
EXTT3=
EXTT4=
EXTT5=
EXTT6=
EXTT7=
EXTT8=
EXTT9=
EXTT10=
EXTT11=
EXTT12=
EXTT13=
EXTT14=
EXTT15=
EXTT16=
EXTT17=
EXTT18=
EXTT19=
PLAYORDER=
